PathFileType	4	(X/Y/Z)	SUBJ36_2_walk_RCNL2025.trc
DataRate	CameraRate	NumFrames	NumMarkers	Units	OrigDataRate	OrigDataStartFrame	OrigNumFrames
100	100	12	25	mm	100	200	399
Frame#	Time	R_Shoulder			L_Shoulder			C7			J_Notch			R_Elbow			L_Elbow			R_Wrist			L_Wrist			R_Asis			L_Asis			Sacral			Thoracic			Sternum			R_Thigh_Lateral			R_Knee_Lateral			R_Shank_Lateral			R_Ankle_Lateral			R_Heel			R_Toe			L_Thigh_Lateral			L_Knee_Lateral			L_Shank_Lateral			L_Ankle_Lateral			L_Heel			L_Toe		
		X1	Y1	Z1	X2	Y2	Z2	X3	Y3	Z3	X4	Y4	Z4	X5	Y5	Z5	X6	Y6	Z6	X7	Y7	Z7	X8	Y8	Z8	X9	Y9	Z9	X10	Y10	Z10	X11	Y11	Z11	X12	Y12	Z12	X13	Y13	Z13	X14	Y14	Z14	X15	Y15	Z15	X16	Y16	Z16	X17	Y17	Z17	X18	Y18	Z18	X19	Y19	Z19	X20	Y20	Z20	X21	Y21	Z21	X22	Y22	Z22	X23	Y23	Z23	X24	Y24	Z24	X25	Y25	Z25
200	1.99000000	606.016602	1347.099243	-141.683411	594.264038	1322.728760	-486.756927	537.552063	1407.246582	-301.247986	671.164978	1296.220459	-305.277466	556.726318	1030.567505	-60.741070	525.544983	1012.275146	-536.572754	709.465973	841.856415	-51.717100	608.110657	793.057953	-545.608063	649.729492	911.388245	-183.562653	659.915344	907.119263	-408.736237	434.584473	899.434204	-310.112640	453.431824	1151.892334	-296.304688	698.969299	1115.264282	-299.046906	498.400360	508.202850	-155.919891	493.523041	448.436035	-207.836044	442.414093	239.461136	-186.323807	432.993225	73.559814	-265.736572	387.554596	54.734028	-315.446259	553.253418	45.516846	-284.895325	723.020020	533.295471	-488.501801	744.556458	462.271423	-418.948792	676.217041	271.195160	-454.107849	630.741516	108.735291	-383.714142	592.146790	82.749817	-327.302917	749.299744	54.666935	-373.750916
201	2.00000000	616.554199	1345.659058	-141.039871	604.670410	1321.261475	-486.200714	548.137878	1405.909668	-300.605682	681.708191	1294.815308	-304.684448	567.979065	1029.098145	-59.983681	534.499634	1011.137207	-535.964478	723.058075	842.046692	-51.711496	615.151978	791.274597	-546.007568	659.934326	910.447083	-182.752869	670.208740	906.260864	-408.099060	444.943451	897.983215	-309.957336	463.736389	1150.680298	-295.664246	709.374634	1113.850464	-298.275360	502.959961	508.796722	-155.724503	497.584839	448.997681	-207.699234	444.014801	240.554138	-186.500580	433.450562	74.539627	-266.012451	387.977448	56.285904	-315.823975	553.568970	45.505028	-284.922180	733.871155	532.107727	-487.427460	756.221558	461.310822	-417.614929	699.265930	265.256561	-451.525024	664.072205	101.117607	-379.985352	626.901245	73.203674	-323.533722	785.647522	54.133934	-369.445770
202	2.01000000	627.083618	1344.150024	-140.429321	615.194397	1319.730225	-485.674652	558.759277	1404.521240	-300.018127	692.303101	1293.370850	-304.110931	579.273254	1027.553589	-59.306740	543.564026	1009.942139	-535.412476	736.343689	841.954895	-51.683237	622.372070	789.476166	-546.360718	670.214172	909.522278	-181.950729	680.597168	905.271790	-407.531250	455.399841	896.493591	-309.816528	474.102814	1149.407715	-295.127441	719.834961	1112.389893	-297.519684	507.976929	509.408051	-155.437729	502.011536	449.595673	-207.467896	445.790405	241.760681	-186.546860	433.954315	75.628426	-266.152435	388.434204	57.967674	-316.047241	553.880920	45.516605	-284.896637	743.736816	530.242126	-486.246704	767.094788	459.967224	-416.188599	721.861572	259.721924	-448.757019	697.311340	94.367477	-376.048889	661.503052	64.788612	-319.549896	821.479797	54.577576	-364.874603
203	2.02000000	637.615112	1342.599854	-139.858536	625.827332	1318.156860	-485.184357	569.415405	1403.099121	-299.489594	702.952332	1291.908936	-303.563507	590.621582	1025.964111	-58.702919	552.758606	1008.707153	-534.915710	749.317810	841.588165	-51.627289	629.778992	787.673309	-546.666107	680.592285	908.617920	-181.177521	691.096008	904.161987	-407.041595	465.969116	894.986450	-309.691071	484.539001	1148.086182	-294.685211	730.360229	1110.906372	-296.790283	513.462097	510.026611	-155.046478	506.810303	450.225098	-207.131027	447.789612	243.068817	-186.437668	434.517456	76.832489	-266.132751	388.928223	59.788013	-316.090454	554.189697	45.546188	-284.817230	752.623596	527.712463	-484.900970	777.267090	458.307129	-414.635437	743.915100	254.686829	-445.822205	730.182068	88.592461	-371.969330	695.672485	57.604992	-315.400330	856.528320	56.002964	-360.164062
204	2.03000000	648.159241	1341.036133	-139.334213	636.559631	1316.563843	-484.735657	580.105164	1401.659424	-299.024109	713.658142	1290.450806	-303.049408	602.034424	1024.359619	-58.164440	562.103577	1007.449341	-534.472900	761.977142	840.957031	-51.537886	637.381470	785.877350	-546.923431	691.091003	907.733704	-180.453644	701.719543	902.945007	-406.634521	476.665955	893.480530	-309.579315	495.053619	1146.726074	-294.328857	740.961670	1109.424072	-296.096130	519.416504	510.641663	-154.543625	511.987610	450.878571	-206.683655	450.060974	244.464508	-186.157761	435.153564	78.157448	-265.940582	389.464661	61.757000	-315.938965	554.499756	45.587971	-284.686340	760.578796	524.568359	-483.340210	786.863281	456.409637	-412.931549	765.337402	250.217178	-442.743774	762.370361	83.856758	-367.807983	729.107971	51.690548	-311.133453	890.502686	58.349857	-355.431763
205	2.04000000	658.726868	1339.485229	-138.862595	647.381592	1314.972168	-484.334351	590.827942	1400.216187	-298.625244	724.423035	1289.015747	-302.576202	613.518494	1022.767883	-57.683887	571.617004	1006.184814	-534.082458	774.320160	840.075165	-51.408674	645.189575	784.099762	-547.133820	701.730591	906.864990	-179.795944	712.480835	901.635986	-406.308868	487.503510	891.992004	-309.476776	505.656525	1145.336304	-294.050629	751.651306	1107.965698	-295.444672	525.832153	511.242645	-153.929810	517.549133	451.546143	-206.127884	452.647003	245.933395	-185.703476	435.875763	79.608185	-265.574524	390.050903	63.885067	-315.589569	554.818787	45.636948	-284.508972	767.705872	520.898376	-481.530243	796.038269	454.361420	-411.065399	786.041199	246.346207	-439.548126	793.541626	80.169945	-363.617889	761.494324	47.016903	-306.795441	923.103516	61.487804	-350.771851
206	2.05000000	669.329651	1337.971436	-138.449265	658.284058	1313.401611	-483.986023	601.584656	1398.781738	-298.295837	735.249939	1287.620728	-302.151520	625.076172	1021.213501	-57.255142	581.313477	1004.927673	-533.742493	786.347229	838.959351	-51.232937	653.214417	782.351562	-547.299713	712.529114	906.003540	-179.215302	723.391663	900.250793	-406.057617	498.493530	890.535156	-309.376648	516.358582	1143.924683	-293.843384	762.441284	1106.552124	-294.841888	532.692810	511.819794	-153.214142	523.499146	452.215515	-205.472946	455.578613	247.462708	-185.082932	436.695923	81.188660	-265.043457	390.696167	66.182068	-315.049805	555.156372	45.689552	-284.291473	774.175781	516.829407	-479.459076	804.969299	452.249695	-409.038086	805.944092	243.073029	-436.263428	823.359436	77.480797	-359.440552	792.510803	43.492771	-302.428375	954.037476	65.218491	-346.244751
207	2.06000000	679.979858	1336.516113	-138.098923	669.259216	1311.869141	-483.695862	612.377808	1397.366333	-298.037811	746.142822	1286.280151	-301.782806	636.704163	1019.716858	-56.874191	591.203125	1003.689453	-533.450256	798.060181	837.628693	-51.003956	661.467651	780.642578	-547.424805	723.502686	905.138611	-178.715088	734.462891	898.805115	-405.868134	509.646271	889.122437	-309.270508	527.171997	1142.498169	-293.700226	773.343689	1105.201294	-294.292389	539.975952	512.364685	-152.413727	529.839966	452.872345	-204.733978	458.871613	249.042725	-184.314438	437.623718	82.901726	-264.364258	391.411133	68.656479	-314.336365	555.522949	45.743797	-284.040344	780.231506	512.521301	-477.141388	813.844604	450.155029	-406.862610	824.971497	240.363266	-432.917633	851.505127	75.678391	-355.305054	821.840942	40.973663	-298.069122	983.031982	69.286079	-341.872620
208	2.07000000	690.690979	1335.136963	-137.815308	680.300964	1310.388916	-483.468781	623.212402	1395.978760	-297.852173	757.107117	1285.005981	-301.477325	648.392212	1018.293457	-56.539787	601.290649	1002.478516	-533.202454	809.461945	836.104156	-50.715464	669.960785	778.980957	-547.514069	734.665710	904.258057	-178.290421	745.705444	897.314331	-405.723114	520.970947	887.765442	-309.149475	538.109985	1141.063110	-293.613892	784.370605	1103.927490	-293.800049	547.654480	512.870239	-151.551956	536.571716	453.501038	-203.930115	462.524933	250.667786	-183.423752	438.666229	84.749023	-263.559021	392.207794	71.314903	-313.472839	555.928711	45.798813	-283.761292	786.182312	508.156403	-474.620117	822.849854	448.144531	-404.561676	843.059387	238.152939	-429.537292	877.695190	74.601318	-351.229309	849.183350	39.277313	-293.749969	1009.849426	73.394989	-337.641907
209	2.08000000	701.477722	1333.847046	-137.601212	691.404785	1308.971680	-483.309113	634.095642	1394.626465	-297.739044	768.149841	1283.807495	-301.241821	660.122742	1016.953369	-56.253765	611.575256	1001.300232	-532.994507	820.556122	834.407562	-50.362022	678.704529	777.372894	-547.573364	746.031555	903.349365	-177.928802	757.131042	895.794983	-405.602051	532.476074	886.474854	-309.005646	549.186707	1139.625366	-293.576172	795.533936	1102.741211	-293.368408	555.699341	513.330627	-150.656128	543.692993	454.085388	-203.081985	466.522064	252.336609	-182.441010	439.828003	86.731178	-262.652130	393.099457	74.161858	-312.487671	556.382874	45.854076	-283.458893	792.386292	503.925201	-471.964111	832.154175	446.267120	-402.165161	860.157104	236.356094	-426.146729	901.696838	74.054329	-347.223907	874.264832	38.203018	-289.500488	1034.299194	77.233368	-333.512512
210	2.09000000	712.355652	1332.654907	-137.458572	702.568298	1307.624512	-483.220703	645.036804	1393.315796	-297.697723	779.279663	1282.691895	-301.082550	671.870728	1015.701660	-56.020912	622.051025	1000.156921	-532.821228	831.346588	832.561035	-49.939390	687.708099	775.822845	-547.608978	757.612549	902.400940	-177.612030	768.752563	894.265442	-405.483032	544.169495	885.260193	-308.833221	560.416321	1138.191040	-293.577454	806.845764	1101.649780	-293.001251	564.082764	513.740234	-149.754349	551.201904	454.609070	-202.209152	470.834625	254.052094	-181.397644	441.112122	88.848251	-261.667511	394.101990	77.200020	-311.412109	556.893005	45.908329	-283.136322	799.220642	500.009705	-469.261322	841.897949	444.551941	-399.707153	876.230530	234.875610	-422.768524	923.339966	73.830109	-343.297119	896.856995	37.552452	-285.350677	1056.247803	80.499489	-329.432159
211	2.10000000	723.341003	1331.564453	-137.388733	713.790833	1306.350952	-483.206757	656.047241	1392.052856	-297.727142	790.507019	1281.665283	-301.004944	683.605469	1014.539490	-55.848354	632.707764	999.049133	-532.676392	841.836945	830.586548	-49.444713	696.979309	774.334106	-547.627441	769.419373	901.402771	-177.318848	780.583862	892.747864	-405.344391	556.058411	884.130249	-308.629608	571.812317	1136.767090	-293.606995	818.318481	1100.658203	-292.702576	572.781494	514.092773	-148.872726	559.098694	455.056030	-201.327774	475.428772	255.820663	-180.323700	442.522339	91.100540	-260.626770	395.235443	80.431107	-310.278625	557.464966	45.958462	-282.795624	807.043091	496.568268	-466.608368	852.184265	443.010742	-397.223572	891.265869	233.616287	-419.424652	942.525940	73.733078	-339.461151	916.794434	37.148911	-281.334503	1075.627075	82.928268	-325.353210
